<?xml version="1.0" standalone="no"?>
<!DOCTYPE svg PUBLIC "-//W3C//DTD SVG 20010904//EN"
 "http://www.w3.org/TR/2001/REC-SVG-20010904/DTD/svg10.dtd">
<svg version="1.0" xmlns="http://www.w3.org/2000/svg"
 width="400.000000pt" height="400.000000pt" viewBox="0 0 400.000000 400.000000"
 preserveAspectRatio="xMidYMid meet">
<metadata>
Created by potrace 1.11, written by Peter Selinger 2001-2013
</metadata>
<g transform="translate(0.000000,400.000000) scale(0.100000,-0.100000)"
fill="#000000" stroke="none">
<path d="M1037 3003 c-4 -3 -7 -11 -7 -17 0 -6 5 -5 12 2 6 6 9 14 7 17 -3 3
-9 2 -12 -2z"/>
<path d="M1090 3002 c0 -7 -3 -11 -7 -10 -16 3 -43 -14 -37 -24 4 -6 -3 -5
-15 2 -12 6 -18 16 -15 22 4 7 3 8 -5 4 -6 -4 -9 -11 -7 -15 3 -4 -2 -8 -10
-8 -8 0 -13 5 -11 12 3 6 -5 11 -17 12 -11 0 -15 -1 -8 -4 10 -4 8 -9 -5 -19
-14 -11 -15 -13 -2 -8 9 3 19 -1 22 -9 4 -11 0 -13 -16 -10 -16 3 -18 2 -8 -5
9 -6 10 -12 3 -16 -17 -10 -2 -38 17 -32 11 4 10 2 -3 -9 -13 -10 -15 -15 -6
-15 9 0 7 -5 -6 -15 -14 -11 -15 -14 -3 -9 19 6 35 -11 19 -21 -15 -9 -12 -28
3 -19 9 5 9 3 -1 -7 -11 -12 -14 -12 -23 1 -9 12 -10 12 -5 -3 3 -10 6 -21 6
-23 0 -3 6 -2 13 2 7 5 6 0 -3 -11 -9 -11 -10 -16 -2 -11 18 11 14 -5 -5 -20
-15 -12 -16 -13 -2 -8 25 8 31 -11 9 -31 -19 -17 -17 -50 4 -38 6 4 4 -2 -4
-12 -9 -11 -10 -16 -2 -11 18 11 14 -5 -5 -20 -15 -12 -16 -13 -2 -8 19 6 35
-11 19 -21 -15 -9 -12 -28 3 -19 9 5 9 3 -1 -7 -11 -12 -14 -12 -23 1 -9 12
-10 12 -5 -3 3 -10 6 -21 6 -23 0 -3 6 -2 13 2 7 5 6 0 -3 -11 -9 -11 -10 -16
-2 -11 6 4 12 3 12 -2 0 -6 -7 -13 -16 -16 -17 -6 -10 -26 9 -26 7 0 6 4 -3
10 -9 6 -10 10 -3 10 19 0 26 -20 9 -26 -9 -3 -13 -10 -10 -15 3 -5 10 -6 16
-3 7 4 8 2 4 -5 -4 -6 -11 -9 -16 -6 -5 3 -12 1 -15 -5 -4 -6 -2 -9 3 -8 6 2
9 -1 8 -7 0 -5 -5 -9 -9 -7 -5 1 -6 -2 -2 -8 3 -6 11 -8 16 -5 5 3 6 -1 3 -9
-3 -9 -11 -13 -16 -10 -6 4 -5 -2 1 -14 14 -26 14 -35 1 -27 -6 3 -7 -1 -3
-10 5 -14 8 -14 15 -3 7 9 8 8 4 -5 -3 -10 -6 -21 -6 -23 0 -3 -5 -2 -11 2 -8
5 -8 1 0 -14 14 -26 14 -35 1 -27 -6 3 -7 -1 -3 -10 5 -14 8 -14 15 -3 7 9 8
8 4 -5 -3 -10 -6 -21 -6 -23 0 -3 -5 -2 -11 2 -8 5 -8 1 0 -14 14 -26 14 -35
1 -27 -6 3 -7 -1 -3 -10 5 -14 8 -14 15 -3 7 9 8 8 4 -5 -3 -10 -6 -21 -6 -23
0 -3 -4 -2 -10 1 -6 3 -7 -1 -4 -10 6 -14 7 -14 18 0 10 15 12 14 12 -4 0 -11
-5 -17 -10 -14 -5 4 -7 -1 -2 -12 5 -15 4 -16 -9 -5 -21 18 -19 7 5 -20 11
-13 20 -28 20 -33 0 -6 -6 -3 -13 8 -11 14 -16 15 -22 5 -5 -9 -4 -11 3 -6 7
4 12 3 12 -3 0 -5 -6 -12 -12 -14 -7 -3 -2 -6 12 -7 14 -1 19 -4 13 -7 -7 -2
-13 -9 -13 -14 0 -6 5 -7 12 -3 7 5 8 3 3 -6 -6 -10 -11 -9 -23 6 -14 18 -14
18 -7 -1 4 -11 8 -24 9 -30 1 -5 6 -16 10 -24 6 -9 5 -12 -2 -7 -6 3 -14 2
-17 -4 -4 -6 -1 -9 7 -8 7 2 13 -4 13 -12 0 -8 4 -20 8 -27 4 -6 3 -14 -3 -18
-10 -6 -14 1 -11 18 1 5 -3 6 -9 2 -7 -4 -7 -12 0 -26 6 -10 8 -19 4 -19 -3 0
0 -8 7 -17 8 -10 9 -14 2 -10 -6 4 -15 3 -18 -3 -4 -6 -1 -9 7 -8 7 2 13 -5
13 -14 0 -9 4 -20 8 -24 4 -5 -2 -16 -15 -26 l-23 -17 23 4 c28 5 28 -3 0 -15
-14 -5 -17 -9 -8 -9 9 -1 16 -11 17 -23 2 -22 1 -22 -13 -4 -8 11 -14 15 -14
8 0 -6 9 -20 21 -31 l21 -19 -22 -12 c-14 -7 -18 -15 -13 -23 11 -15 11 -27
-2 -47 -8 -13 -7 -13 10 0 17 13 18 13 13 -1 -4 -9 -2 -21 3 -26 6 -6 4 -14
-6 -23 -12 -10 -15 -10 -15 0 0 8 -2 11 -5 8 -3 -3 -3 -13 1 -22 5 -14 9 -14
22 -4 13 11 14 11 7 -2 -10 -15 -11 -20 -14 -41 0 -5 -6 -7 -12 -3 -8 5 -8 1
0 -13 6 -11 7 -23 4 -27 -9 -9 11 -8 23 1 5 5 -2 -2 -16 -14 -25 -22 -25 -23
-2 -18 12 2 22 2 22 -1 0 -3 -10 -9 -22 -14 -20 -8 -21 -9 -4 -9 19 -1 19 -1
1 -15 -18 -13 -18 -14 3 -32 l22 -19 -22 -17 -23 -17 23 4 c12 2 22 2 22 -1 0
-3 -10 -9 -22 -14 -14 -5 -17 -9 -8 -9 9 -1 16 -11 17 -23 2 -22 1 -22 -13 -4
-8 11 -14 15 -14 8 0 -6 9 -20 21 -31 l21 -19 -21 -12 c-12 -6 -19 -15 -15
-21 4 -6 11 -6 20 2 12 10 13 9 8 -5 -3 -9 -11 -16 -17 -16 -6 0 -7 -3 -4 -7
4 -3 2 -12 -4 -20 -16 -18 -4 -16 15 3 9 8 16 11 16 5 0 -5 -10 -17 -22 -27
l-23 -16 23 5 c18 4 21 3 13 -7 -6 -7 -8 -16 -4 -19 3 -4 1 -7 -5 -7 -7 0 -12
5 -12 12 0 6 -2 9 -5 6 -9 -8 6 -38 16 -32 5 3 9 -2 9 -11 0 -9 -4 -13 -10
-10 -6 3 -7 -1 -3 -10 3 -9 9 -13 12 -8 8 12 81 13 81 1 0 -5 5 -6 10 -3 6 4
7 11 4 17 -4 6 1 6 14 -1 27 -14 35 -14 26 1 -5 7 -3 8 6 3 18 -11 60 -12 89
-2 22 7 23 6 10 -9 -13 -16 -12 -16 6 -7 11 6 34 10 50 9 17 -1 40 2 52 6 18
6 21 4 16 -10 -5 -13 -4 -15 8 -6 20 15 61 16 52 1 -5 -9 -3 -9 8 -1 17 13 49
14 49 2 0 -5 5 -6 10 -3 6 4 7 11 4 17 -4 6 1 6 14 -1 26 -14 35 -14 27 -1 -3
6 1 7 9 4 9 -3 16 -10 16 -16 0 -5 5 -6 10 -3 6 4 7 11 4 17 -4 6 3 5 16 -2
18 -9 25 -8 41 6 15 14 17 20 6 32 -9 13 -9 14 1 8 6 -4 12 -2 12 3 0 6 -5 11
-11 11 -8 0 -8 4 0 13 8 10 7 17 -2 27 -9 10 -9 11 1 6 6 -4 12 -3 12 3 0 5
-6 12 -12 14 -10 4 -10 6 0 6 10 1 10 6 1 22 -8 15 -8 19 0 15 6 -4 11 -2 11
3 0 6 -5 11 -11 11 -8 0 -8 4 0 13 8 10 7 17 -2 27 -9 10 -9 11 1 6 6 -4 12
-3 12 3 0 5 -6 12 -12 14 -10 4 -10 6 0 6 10 1 10 6 1 22 -8 15 -8 19 0 15 6
-4 11 -2 11 3 0 6 -5 11 -11 11 -8 0 -8 4 0 13 8 10 7 17 -2 27 -9 10 -9 11 1
6 6 -4 12 -3 12 3 0 5 -6 12 -12 14 -10 4 -10 6 0 6 10 1 10 6 1 22 -8 15 -8
19 0 15 15 -10 14 7 -1 23 -11 11 -10 12 1 6 11 -6 13 -4 8 9 -4 10 -3 15 3
11 6 -3 10 -1 10 5 0 6 5 8 10 5 6 -3 10 4 10 17 0 16 3 19 9 10 7 -11 9 -10
15 3 3 9 9 14 13 12 5 -3 24 9 43 25 19 17 29 28 23 24 -7 -4 -13 -3 -13 3 0
5 9 13 20 16 11 4 17 11 14 17 -5 7 -1 9 9 5 11 -4 22 2 33 18 9 14 23 25 31
25 13 0 13 2 2 17 -13 15 -12 15 8 5 19 -10 23 -9 28 8 4 11 11 17 17 14 7 -5
9 -2 6 7 -4 10 1 15 13 16 12 1 17 -3 13 -10 -5 -8 -2 -7 7 1 12 11 12 14 -1
22 -13 9 -13 10 0 10 24 0 43 -17 35 -30 -6 -9 -4 -11 5 -5 10 6 12 3 7 -14
-4 -17 -2 -20 7 -12 15 13 34 -15 31 -46 -1 -17 4 -23 19 -24 12 0 15 -3 8 -6
-10 -4 -10 -8 -1 -19 9 -11 9 -14 0 -14 -7 0 -1 -11 13 -24 26 -23 36 -54 14
-40 -7 4 -8 3 -4 -4 5 -9 13 -9 27 -1 18 9 19 8 11 -8 -7 -13 -6 -25 5 -43 8
-14 12 -18 10 -9 -3 9 0 16 7 16 14 0 15 -25 1 -46 -5 -10 -4 -12 3 -7 8 4 12
0 12 -11 0 -15 2 -16 10 -3 8 12 10 10 10 -8 0 -13 4 -20 10 -17 14 9 12 -8
-2 -24 -11 -11 -10 -13 4 -8 11 4 18 -1 21 -15 3 -11 10 -18 15 -14 5 3 9 -1
9 -9 0 -8 -4 -12 -8 -9 -4 2 -10 0 -13 -5 -4 -5 4 -8 17 -7 19 2 23 -2 22 -23
0 -17 5 -26 15 -26 10 0 14 -8 12 -24 -3 -16 0 -21 9 -16 7 5 10 4 6 -3 -9
-13 2 -44 13 -37 4 3 11 -2 14 -11 3 -8 2 -12 -4 -9 -6 3 -7 -1 -4 -9 3 -9 10
-13 15 -10 5 3 9 -2 9 -10 0 -9 6 -16 13 -16 9 0 9 -2 -1 -9 -10 -6 -9 -11 4
-22 16 -12 17 -12 9 1 -8 13 -6 13 7 2 9 -8 15 -19 12 -26 -3 -8 2 -16 11 -20
11 -4 14 -2 9 7 -5 9 -4 9 6 0 8 -8 20 -9 37 -2 15 6 22 5 18 -1 -3 -5 8 -7
29 -5 19 3 38 0 41 -5 4 -6 11 -8 16 -4 21 13 62 14 77 2 9 -7 13 -8 9 -2 -4
7 2 14 13 17 12 3 18 1 14 -5 -4 -6 1 -8 15 -3 14 4 21 2 21 -7 0 -10 2 -10 9
1 5 7 15 11 22 9 8 -3 25 -1 38 4 22 8 23 7 10 -9 -12 -14 -12 -16 0 -8 21 13
69 16 76 5 4 -6 11 -8 16 -4 21 13 62 14 77 2 9 -7 13 -8 9 -2 -4 7 2 14 13
17 12 3 18 1 14 -5 -4 -6 1 -8 15 -3 14 4 21 2 21 -7 0 -10 2 -10 9 1 5 7 14
10 20 7 6 -4 11 -2 11 5 0 7 8 5 22 -7 12 -10 18 -13 13 -5 -6 11 -3 13 13 9
23 -6 32 15 12 27 -6 4 -8 10 -5 15 3 5 1 12 -5 15 -8 5 -8 11 0 20 8 9 5 12
-12 11 -13 0 -23 4 -23 9 0 6 -3 15 -6 20 -3 6 -5 22 -4 36 0 14 -5 26 -12 26
-6 0 -9 -5 -6 -11 4 -6 -1 -5 -10 3 -18 15 -23 26 -7 16 6 -3 10 -1 10 4 0 6
-5 11 -12 11 -6 0 -8 3 -5 7 4 3 -1 12 -11 20 -9 8 -11 11 -3 7 9 -5 12 -3 7
5 -4 6 -11 9 -16 6 -5 -3 -11 -1 -15 5 -3 5 -1 10 6 10 8 0 9 3 0 13 -6 8 -8
17 -4 21 4 4 -1 4 -12 0 -15 -6 -17 -4 -12 10 5 11 -2 26 -18 42 -13 13 -24
28 -23 32 0 4 -8 12 -18 17 -11 6 -18 18 -16 28 2 10 -3 17 -11 17 -19 0 -41
57 -24 63 6 2 3 6 -7 10 -9 4 -15 3 -11 -2 3 -5 1 -12 -4 -15 -5 -3 -8 10 -7
29 1 19 -4 37 -11 39 -8 3 -10 -1 -7 -12 5 -15 4 -15 -5 -2 -7 8 -17 24 -23
35 -10 18 -10 19 5 6 10 -8 17 -9 17 -3 0 6 -9 13 -19 17 -11 3 -24 19 -30 36
-7 21 -15 28 -23 23 -8 -5 -7 -1 2 11 14 17 13 18 -2 12 -13 -4 -15 -2 -11 10
4 10 2 14 -4 10 -6 -4 -14 0 -17 9 -3 8 -11 12 -17 8 -8 -4 -9 -3 -5 5 6 9 11
9 21 1 10 -8 15 -8 21 1 4 7 3 9 -3 6 -6 -4 -19 3 -29 15 -11 12 -13 18 -5 13
10 -5 12 -4 7 3 -4 7 -15 12 -24 12 -15 0 -15 2 -2 10 12 8 12 10 -5 10 -15 0
-17 3 -7 9 10 6 8 10 -8 14 -16 4 -21 11 -16 23 5 12 2 15 -9 10 -9 -3 -13 -2
-10 4 7 12 -12 51 -33 66 -9 7 -13 19 -9 33 4 18 3 20 -9 10 -11 -9 -14 -8
-14 5 0 10 -4 14 -10 11 -5 -3 -10 -1 -10 4 0 6 6 11 13 11 6 0 4 5 -6 11 -9
6 -15 14 -12 20 4 5 1 9 -5 9 -6 0 -8 5 -4 12 5 8 2 9 -9 5 -20 -8 -22 4 -4
22 10 11 10 13 0 7 -7 -4 -13 -2 -13 3 0 6 -7 11 -15 11 -8 0 -12 6 -9 13 2 7
-5 23 -16 35 -30 32 -34 62 -8 57 20 -4 20 -4 2 18 -11 12 -12 16 -4 10 10 -8
21 -9 30 -3 12 8 13 10 1 10 -9 0 -5 8 10 21 13 12 23 25 22 29 -2 5 6 7 17 5
13 -3 17 1 13 11 -3 8 0 14 7 14 7 0 10 7 6 16 -5 14 -4 15 8 5 12 -10 13 -9
9 9 -4 16 -2 19 11 14 14 -6 21 9 18 37 -1 4 6 6 16 5 12 -1 17 6 16 23 -1 22
0 23 13 6 12 -18 13 -18 13 2 0 12 5 25 10 28 6 4 7 11 4 17 -4 7 -2 8 5 4 6
-4 23 0 37 9 22 14 23 19 12 33 -8 10 -8 13 -1 9 7 -4 14 1 18 13 5 17 9 19
21 9 12 -10 13 -9 8 5 -4 10 -1 16 7 16 7 0 9 3 6 6 -9 10 45 54 56 47 6 -3 7
-1 3 5 -4 7 -2 20 3 29 6 10 11 14 11 10 0 -10 30 18 30 28 0 3 -5 3 -12 -1
-7 -4 -8 -3 -4 4 4 7 14 12 23 12 9 0 13 6 10 14 -3 8 1 13 11 12 9 0 18 7 20
17 5 25 35 54 50 49 7 -2 11 2 10 10 -2 7 3 12 10 10 8 -1 11 2 7 8 -3 5 10
25 30 45 20 19 34 39 30 44 -3 6 6 8 22 5 21 -3 24 -2 13 5 -15 10 -7 26 13
26 7 0 12 7 12 15 0 9 8 14 20 12 17 -2 17 -1 5 8 -13 9 -13 11 0 20 12 7 10
9 -7 8 -14 -2 -19 -7 -15 -18 5 -13 3 -13 -11 -1 -9 7 -14 18 -10 25 4 6 -1 5
-10 -2 -9 -8 -21 -11 -27 -7 -6 4 -21 -1 -32 -12 -16 -14 -20 -14 -16 -3 4 11
-1 15 -16 15 -34 -2 -52 -15 -35 -26 10 -6 10 -9 2 -9 -6 0 -14 4 -18 9 -3 6
-14 8 -25 6 -14 -3 -20 2 -20 13 -1 16 -1 16 -11 0 -5 -10 -15 -18 -21 -18 -7
0 -7 5 1 14 9 11 9 16 0 22 -8 5 -9 3 -4 -6 6 -10 4 -12 -8 -7 -8 3 -20 0 -26
-7 -6 -7 -21 -13 -34 -12 -12 1 -26 -3 -30 -9 -5 -6 -7 -4 -4 5 2 9 14 15 29
14 19 -1 25 3 21 13 -4 9 -8 11 -12 4 -4 -5 -19 -8 -34 -7 -15 2 -30 -1 -34
-7 -4 -6 -1 -7 7 -2 8 5 11 4 7 -2 -7 -11 -72 -11 -83 0 -4 4 -2 7 5 7 7 0 9
5 6 11 -5 6 -13 3 -22 -10 -8 -12 -19 -21 -25 -21 -7 0 -6 5 1 14 9 11 9 16 0
22 -8 4 -9 3 -5 -4 4 -8 0 -12 -11 -12 -11 0 -25 -6 -32 -12 -11 -11 -12 -10
-6 1 7 11 4 13 -11 6 -10 -4 -31 -8 -46 -8 -18 1 -25 -3 -21 -11 5 -8 3 -8 -8
0 -8 6 -24 10 -36 8 -13 -2 -23 1 -23 6 0 7 -6 7 -19 0 -28 -14 -36 -12 -21 5
7 9 10 18 6 22 -3 3 -6 1 -6 -6 0 -7 -7 -11 -15 -8 -8 4 -17 2 -20 -3 -4 -6
-11 -10 -16 -10 -6 0 -7 5 -3 12 4 7 3 8 -5 4 -9 -6 -9 -11 1 -24 10 -12 10
-14 1 -8 -8 4 -13 2 -13 -5 0 -8 -5 -7 -17 2 -15 13 -15 12 -5 -8 9 -16 9 -24
0 -29 -7 -4 -8 -3 -4 4 4 7 2 12 -3 12 -6 0 -11 -12 -12 -27 0 -16 -3 -22 -6
-15 -4 10 -9 9 -24 -4 -15 -13 -16 -20 -8 -31 10 -11 8 -12 -7 -7 -10 4 -16 4
-12 -1 4 -4 0 -14 -10 -22 -9 -8 -11 -11 -3 -7 9 5 12 3 7 -5 -4 -6 -13 -11
-19 -10 -33 4 -40 -1 -21 -15 10 -8 16 -18 11 -22 -4 -4 -7 -2 -7 4 0 6 -6 9
-14 6 -8 -3 -12 -12 -9 -20 3 -9 -2 -14 -18 -14 -12 0 -19 -3 -16 -7 4 -3 -1
-12 -11 -19 -10 -8 -12 -13 -4 -14 6 0 12 -4 12 -9 0 -6 -8 -8 -18 -6 -11 2
-24 -6 -32 -18 -11 -19 -11 -21 1 -12 8 6 4 0 -9 -11 -14 -12 -22 -27 -18 -32
4 -7 -2 -9 -15 -7 -17 4 -19 2 -8 -11 10 -12 9 -13 -3 -9 -8 3 -21 -2 -29 -12
-13 -16 -12 -17 3 -5 11 9 18 10 23 2 4 -6 3 -10 -2 -9 -4 1 -16 -1 -26 -6
-12 -5 -14 -11 -8 -19 7 -8 4 -12 -10 -13 -11 -1 -17 2 -14 7 3 6 -1 7 -10 4
-14 -6 -14 -8 2 -20 12 -9 14 -13 5 -14 -7 0 -20 -6 -27 -14 -11 -10 -11 -16
-2 -26 9 -10 7 -10 -13 0 -24 13 -24 12 -10 -5 9 -11 10 -16 3 -11 -9 5 -13 1
-13 -11 0 -15 -2 -16 -10 -3 -8 13 -10 12 -11 -5 -1 -11 -1 -24 0 -28 1 -5 -3
-6 -9 -2 -5 3 -15 3 -22 -1 -7 -5 -5 -11 8 -21 18 -13 17 -14 -9 -9 -23 4 -26
2 -18 -8 14 -17 2 -29 -16 -14 -11 9 -12 7 -7 -7 5 -12 4 -16 -4 -11 -7 4 -10
0 -7 -12 2 -15 -2 -18 -20 -17 -18 3 -22 -1 -17 -18 3 -13 1 -18 -6 -13 -8 5
-10 1 -5 -10 4 -12 3 -15 -5 -10 -10 6 -17 -11 -14 -35 1 -4 -9 -5 -21 -3 -12
2 -17 2 -10 -2 10 -4 10 -8 0 -19 -7 -7 -16 -10 -21 -7 -5 3 -7 -2 -3 -11 6
-16 -6 -30 -31 -33 -6 -1 -9 2 -6 7 3 6 0 16 -6 24 -10 12 -10 15 0 15 9 0 9
4 -1 17 -10 11 -10 14 -1 9 6 -4 12 -2 12 3 0 6 -5 11 -11 11 -8 0 -8 5 1 15
10 12 10 15 -1 15 -11 0 -11 2 1 10 13 9 13 11 0 20 -12 8 -12 10 -1 10 10 0
11 3 2 13 -6 8 -8 16 -5 19 10 10 9 98 -1 98 -7 0 -7 3 0 8 6 4 10 21 10 37 0
17 -4 33 -10 37 -7 5 -7 8 0 8 6 0 10 16 10 35 0 19 -4 35 -10 35 -7 0 -7 3 0
8 6 4 10 21 10 37 0 17 -4 33 -10 37 -7 5 -7 8 0 8 6 0 10 16 10 35 0 19 -4
35 -10 35 -7 0 -7 3 0 8 13 9 13 72 0 72 -7 0 -7 3 0 8 6 4 10 21 10 37 0 17
-4 33 -10 37 -6 5 -5 8 2 8 7 0 10 6 8 13 -2 6 -7 25 -9 41 -5 29 -16 48 -16
28 0 -7 -12 -10 -30 -8 -16 2 -27 -1 -24 -5 3 -5 -1 -9 -8 -10 -7 -1 -26 -2
-41 -3 -15 -2 -30 1 -33 6 -3 4 0 8 6 8 6 0 8 5 5 11 -5 6 -13 3 -22 -10 -8
-12 -19 -21 -25 -21 -7 0 -6 5 1 14 9 11 9 16 0 22 -8 5 -9 3 -4 -6 6 -10 4
-12 -8 -7 -8 3 -20 0 -26 -7 -6 -7 -21 -13 -34 -12 -12 1 -26 -3 -30 -9 -5 -6
-7 -4 -4 5 2 9 14 15 29 14 19 -1 25 3 21 13 -4 9 -8 11 -12 4 -4 -5 -19 -8
-34 -7 -15 2 -30 -1 -34 -7 -4 -6 -1 -7 7 -2 8 5 11 4 7 -2 -7 -11 -72 -11
-83 0 -4 4 -2 7 5 7 7 0 9 5 6 11 -5 6 -13 3 -22 -10 -8 -12 -19 -21 -25 -21
-7 0 -6 5 1 14 9 11 9 16 0 22 -8 4 -9 3 -5 -4 4 -8 0 -12 -11 -12 -11 0 -25
-6 -32 -12 -11 -11 -12 -10 -6 1 6 11 4 13 -9 8 -10 -4 -20 -7 -22 -7 -3 0 -2
-6 2 -12 6 -10 5 -10 -8 -1 -8 7 -19 9 -23 5 -5 -4 -5 -1 -1 6 4 7 11 10 16 7
10 -6 25 14 16 22 -3 4 -6 1 -6 -5z m503 -25 c-3 -5 -11 -6 -19 -3 -8 3 -14 0
-14 -6 0 -6 -3 -9 -6 -5 -10 10 3 23 25 23 11 0 17 -4 14 -9z m1392 -5 c-3 -3
-11 0 -18 7 -9 10 -8 11 6 5 10 -3 15 -9 12 -12z m69 10 c3 -5 -1 -9 -9 -9 -8
0 -15 4 -15 9 0 4 4 8 9 8 6 0 12 -4 15 -8z m36 -7 c11 -13 10 -14 -4 -9 -9 3
-16 10 -16 15 0 13 6 11 20 -6z m-2110 -55 c0 -5 -8 -10 -17 -10 -15 0 -16 2
-3 10 19 12 20 12 20 0z m1270 -40 c0 -5 -5 -10 -11 -10 -5 0 -7 5 -4 10 3 6
8 10 11 10 2 0 4 -4 4 -10z m-1275 -200 c-3 -5 -12 -10 -18 -10 -7 0 -6 4 3
10 19 12 23 12 15 0z m1725 -194 c0 -3 -4 -8 -10 -11 -5 -3 -10 -1 -10 4 0 6
5 11 10 11 6 0 10 -2 10 -4z m-1724 -126 c0 -12 -4 -16 -9 -11 -5 5 -6 14 -3
20 10 15 12 14 12 -9z m0 -80 c0 -12 -4 -16 -9 -11 -5 5 -6 14 -3 20 10 15 12
14 12 -9z m0 -80 c0 -12 -4 -16 -9 -11 -5 5 -6 14 -3 20 10 15 12 14 12 -9z
m4 -596 c0 -8 -19 -13 -24 -6 -3 5 1 9 9 9 8 0 15 -2 15 -3z m1097 -68 c-3 -7
0 -20 6 -27 10 -11 9 -11 -5 0 -15 11 -15 41 -1 41 3 0 3 -6 0 -14z m-364 -37
c-15 -16 -22 -18 -28 -8 -5 8 -4 10 3 5 6 -4 17 2 24 13 7 11 14 18 17 15 3
-2 -4 -14 -16 -25z m1192 -149 c3 -5 1 -10 -4 -10 -6 0 -11 5 -11 10 0 6 2 10
4 10 3 0 8 -4 11 -10z m-1935 -40 c0 -5 -2 -10 -4 -10 -3 0 -8 5 -11 10 -3 6
-1 10 4 10 6 0 11 -4 11 -10z m1965 0 c3 -6 -1 -7 -9 -4 -18 7 -21 14 -7 14 6
0 13 -4 16 -10z m-385 -334 c0 -3 -4 -8 -10 -11 -5 -3 -10 -1 -10 4 0 6 5 11
10 11 6 0 10 -2 10 -4z m320 0 c0 -3 -4 -8 -10 -11 -5 -3 -10 -1 -10 4 0 6 5
11 10 11 6 0 10 -2 10 -4z"/>
<path d="M1243 2995 c0 -7 6 -11 14 -8 7 3 13 6 13 8 0 2 -6 5 -13 8 -8 3 -14
-1 -14 -8z"/>
<path d="M1483 2995 c0 -7 6 -11 14 -8 7 3 13 6 13 8 0 2 -6 5 -13 8 -8 3 -14
-1 -14 -8z"/>
<path d="M2480 3000 c-8 -5 -12 -12 -9 -15 4 -3 12 1 19 10 14 17 11 19 -10 5z"/>
<path d="M2530 2999 c0 -5 -4 -8 -9 -4 -5 3 -12 1 -15 -4 -4 -5 2 -8 11 -7 15
3 33 26 19 26 -3 0 -6 -5 -6 -11z"/>
<path d="M2683 2995 c0 -7 6 -11 14 -8 7 3 13 6 13 8 0 2 -6 5 -13 8 -8 3 -14
-1 -14 -8z"/>
<path d="M2931 2994 c0 -11 3 -14 6 -6 3 7 2 16 -1 19 -3 4 -6 -2 -5 -13z"/>
<path d="M950 2830 c-9 -6 -10 -10 -3 -10 6 0 15 5 18 10 8 12 4 12 -15 0z"/>
<path d="M950 2710 c-9 -6 -10 -10 -3 -10 6 0 15 5 18 10 8 12 4 12 -15 0z"/>
<path d="M950 2590 c-9 -6 -10 -10 -3 -10 6 0 15 5 18 10 8 12 4 12 -15 0z"/>
<path d="M1633 2165 c0 -8 4 -12 9 -9 5 3 6 10 3 15 -9 13 -12 11 -12 -6z"/>
<path d="M947 1759 c7 -7 15 -10 18 -7 3 3 -2 9 -12 12 -14 6 -15 5 -6 -5z"/>
<path d="M1995 1620 c-3 -5 1 -10 10 -10 9 0 13 5 10 10 -3 6 -8 10 -10 10 -2
0 -7 -4 -10 -10z"/>
<path d="M940 1526 c0 -2 7 -7 16 -10 8 -3 12 -2 9 4 -6 10 -25 14 -25 6z"/>
<path d="M2850 1441 c0 -6 4 -13 10 -16 6 -3 7 1 4 9 -7 18 -14 21 -14 7z"/>
<path d="M2890 1386 c0 -2 7 -7 16 -10 8 -3 12 -2 9 4 -6 10 -25 14 -25 6z"/>
<path d="M3070 1085 c5 -7 6 -16 2 -21 -4 -5 -3 -5 2 -1 15 12 15 34 0 34 -9
0 -11 -4 -4 -12z"/>
<path d="M3107 1029 c7 -7 15 -10 18 -7 3 3 -2 9 -12 12 -14 6 -15 5 -6 -5z"/>
<path d="M3122 991 c7 -11 16 -17 20 -15 5 3 2 12 -6 20 -21 20 -28 17 -14 -5z"/>
<path d="M2350 990 c-9 -6 -10 -10 -3 -10 6 0 15 5 18 10 8 12 4 12 -15 0z"/>
</g>
</svg>
